<svg xmlns="http://www.w3.org/2000/svg" width="164.292" height="109.999" viewBox="0 0 43.469 29.104" xmlns:v="https://vecta.io/nano"><rect width="46.05" height="40.495" x="208.395" y="482.869" rx="1.059" ry="1.391" transform="matrix(.943971 0 0 .718702 -196.71928 -347.03854)"/><path d="M18.255 11.202H4.258V3.548h15.598" fill="#fadbac"/><path d="M16.85 17.917H4.258v-5.421h13.726" fill="#fdad68"/><path d="M15.916 22.38H4.258v-3.17h12.321" fill="#ff6b2d"/><path d="M15.272 25.459H4.258v-1.785h11.388" fill="#fd3617"/><path d="M20.063 11.036l1.589-7.735 10.681.069c6.078.005 7.563 2.951 7.43 5.92l-.164 1.619-7.832.022.196-.994c.262-1.526-.865-1.456-1.85-1.549l-1.581-.006-.625 2.623z" fill="#011f51"/><path d="M19.629 12.652l-1.008 5.174 18.389-.045c-.169-1.041-.809-1.824-1.81-2.409 1.485-.236 2.724-1.09 3.666-2.692z" fill="#016b8f"/><path d="M18.304 19.234l-.613 2.877h7.919l.634-2.895zm11.418.059l7.861-.025.952 2.878-7.877-.012z" fill="#038c9c"/><path d="M17.34 23.59l-.376 1.993 7.854.059.448-2.046zm13.708.129l.741 1.935 7.83.048-.606-2.01z" fill="#6eaca1"/></svg>